<svg xmlns="http://www.w3.org/2000/svg" width="1024" height="1024" viewBox="0 0 1024 1024">
  <defs>
    <linearGradient id="bg" x1="0" y1="0" x2="0" y2="1">
      <stop offset="0" stop-color="#2FD07E"/><stop offset="0.55" stop-color="#16A94F"/><stop offset="1" stop-color="#0B7A3B"/>
    </linearGradient>
    <radialGradient id="bgGlow" cx="0.5" cy="0.12" r="0.9">
      <stop offset="0" stop-color="#7BF0AD" stop-opacity="0.45"/><stop offset="0.5" stop-color="#7BF0AD" stop-opacity="0"/>
    </radialGradient>
    <linearGradient id="leaf" x1="0" y1="0" x2="1" y2="1">
      <stop offset="0" stop-color="#2BB86A"/><stop offset="1" stop-color="#0C7A3E"/>
    </linearGradient>
    <filter id="soft" x="-40%" y="-40%" width="180%" height="180%"><feGaussianBlur stdDeviation="14"/></filter>
    <filter id="sqShadow" x="-30%" y="-30%" width="160%" height="160%">
      <feDropShadow dx="0" dy="16" stdDeviation="22" flood-color="#04361B" flood-opacity="0.28"/>
    </filter>
    <radialGradient id="berry" cx="0.36" cy="0.28" r="0.92">
      <stop offset="0" stop-color="#EAFEF2"/><stop offset="0.4" stop-color="#86E7B3"/><stop offset="1" stop-color="#149B54"/>
    </radialGradient></defs>

  <g filter="url(#sqShadow)"><rect x="100.0" y="94.0" width="824" height="824" rx="184.3" ry="184.3" fill="url(#bg)"/></g>
  <rect x="100.0" y="94.0" width="824" height="824" rx="184.3" ry="184.3" fill="url(#bgGlow)"/>
  <rect x="100.0" y="94.0" width="824" height="824" rx="184.3" ry="184.3" fill="none" stroke="#FFFFFF" stroke-opacity="0.16" stroke-width="3"/>

  <ellipse cx="512" cy="762" rx="166" ry="46" fill="#04361B" fill-opacity="0.22" filter="url(#soft)"/>

  <g transform="rotate(20 512 364)">
    <path d="M 520 378 C 632 294, 744 324, 762 404
             C 662 434, 552 434, 520 378 Z" fill="url(#leaf)"/>
    <path d="M 534 394 C 622 356, 692 364, 748 398"
          fill="none" stroke="#9DEBBE" stroke-opacity="0.7" stroke-width="6" stroke-linecap="round"/>
  </g>
  <circle cx="512" cy="566" r="202" fill="url(#berry)"/>
  <circle cx="512" cy="566" r="202" fill="none" stroke="#06421F" stroke-opacity="0.2" stroke-width="5"/>
  <path d="M 714 566 A 202 202 0 0 1 472 760 A 182 182 0 0 0 714 566 Z" fill="#07361C" fill-opacity="0.12"/>
  <ellipse cx="442" cy="474" rx="52" ry="34" fill="#FFFFFF" fill-opacity="0.5" transform="rotate(-28 442 474)"/>

  <circle cx="512" cy="386" r="66" fill="#0B7A3B" fill-opacity="0.10"/>
  <path d="M 512.00,328.00 L 526.69,365.77 L 567.16,368.08 L 535.78,393.73 L 546.09,432.92 L 512.00,411.00 L 477.91,432.92 L 488.22,393.73 L 456.84,368.08 L 497.31,365.77 Z" fill="#0A5C30"/>
  <circle cx="512" cy="386" r="12" fill="#12924A"/>
</svg>